<svg class="animated" id="freepik_stories-pleasant-surprise" xmlns="http://www.w3.org/2000/svg" viewBox="0 0 500 500" version="1.1" xmlns:xlink="http://www.w3.org/1999/xlink" xmlns:svgjs="http://svgjs.com/svgjs"><style>svg#freepik_stories-pleasant-surprise:not(.animated) .animable {opacity: 0;}svg#freepik_stories-pleasant-surprise.animated #freepik--background-complete--inject-106 {animation: 1s 1 forwards cubic-bezier(.36,-0.01,.5,1.38) zoomIn;animation-delay: 0s;}svg#freepik_stories-pleasant-surprise.animated #freepik--Character--inject-106 {animation: 1s 1 forwards cubic-bezier(.36,-0.01,.5,1.38) slideRight;animation-delay: 0s;}svg#freepik_stories-pleasant-surprise.animated #freepik--Device--inject-106 {animation: 1s 1 forwards cubic-bezier(.36,-0.01,.5,1.38) zoomOut;animation-delay: 0s;}svg#freepik_stories-pleasant-surprise.animated #freepik--Plant--inject-106 {animation: 1s 1 forwards cubic-bezier(.36,-0.01,.5,1.38) slideLeft;animation-delay: 0s;}svg#freepik_stories-pleasant-surprise.animated #elfb5vraxmriq {animation: 1s 1 forwards cubic-bezier(.36,-0.01,.5,1.38) zoomOut;animation-delay: 0s;}svg#freepik_stories-pleasant-surprise.animated #els9iryphpheo {animation: 1s 1 forwards cubic-bezier(.36,-0.01,.5,1.38) zoomOut;animation-delay: 0.022727272727272728s;opacity: 0}svg#freepik_stories-pleasant-surprise.animated #elfl05e6yv6um {animation: 1s 1 forwards cubic-bezier(.36,-0.01,.5,1.38) zoomOut;animation-delay: 0.045454545454545456s;opacity: 0}svg#freepik_stories-pleasant-surprise.animated #elxe5nvwq6pai {animation: 1s 1 forwards cubic-bezier(.36,-0.01,.5,1.38) zoomOut;animation-delay: 0.06818181818181818s;opacity: 0}svg#freepik_stories-pleasant-surprise.animated #elwyca6w1186q {animation: 1s 1 forwards cubic-bezier(.36,-0.01,.5,1.38) zoomOut;animation-delay: 0.09090909090909091s;opacity: 0}svg#freepik_stories-pleasant-surprise.animated #eliu3eaietg0e {animation: 1s 1 forwards cubic-bezier(.36,-0.01,.5,1.38) zoomOut;animation-delay: 0.11363636363636365s;opacity: 0}svg#freepik_stories-pleasant-surprise.animated #elfrpt2lyiv48 {animation: 1s 1 forwards cubic-bezier(.36,-0.01,.5,1.38) zoomOut;animation-delay: 0.13636363636363635s;opacity: 0}svg#freepik_stories-pleasant-surprise.animated #elvtdzv6btyy {animation: 1s 1 forwards cubic-bezier(.36,-0.01,.5,1.38) zoomOut;animation-delay: 0.1590909090909091s;opacity: 0}svg#freepik_stories-pleasant-surprise.animated #elsmoen305o2 {animation: 1s 1 forwards cubic-bezier(.36,-0.01,.5,1.38) zoomOut;animation-delay: 0.18181818181818182s;opacity: 0}svg#freepik_stories-pleasant-surprise.animated #elx8t760qvuy {animation: 1s 1 forwards cubic-bezier(.36,-0.01,.5,1.38) zoomOut;animation-delay: 0.20454545454545456s;opacity: 0}svg#freepik_stories-pleasant-surprise.animated #elg98lq5dx7c5 {animation: 1s 1 forwards cubic-bezier(.36,-0.01,.5,1.38) zoomOut;animation-delay: 0.2272727272727273s;opacity: 0}svg#freepik_stories-pleasant-surprise.animated #el2m2o0rizb65 {animation: 1s 1 forwards cubic-bezier(.36,-0.01,.5,1.38) zoomOut;animation-delay: 0.25s;opacity: 0}svg#freepik_stories-pleasant-surprise.animated #el1xb7zzugoj6 {animation: 1s 1 forwards cubic-bezier(.36,-0.01,.5,1.38) zoomOut;animation-delay: 0.2727272727272727s;opacity: 0}svg#freepik_stories-pleasant-surprise.animated #ela3auimfxyg4 {animation: 1s 1 forwards cubic-bezier(.36,-0.01,.5,1.38) zoomOut;animation-delay: 0.29545454545454547s;opacity: 0}svg#freepik_stories-pleasant-surprise.animated #elcd5yxncweu6 {animation: 1s 1 forwards cubic-bezier(.36,-0.01,.5,1.38) zoomOut;animation-delay: 0.3181818181818182s;opacity: 0}svg#freepik_stories-pleasant-surprise.animated #el478g9whsmzq {animation: 1s 1 forwards cubic-bezier(.36,-0.01,.5,1.38) zoomOut;animation-delay: 0.34090909090909094s;opacity: 0}svg#freepik_stories-pleasant-surprise.animated #eluy5baqug8hl {animation: 1s 1 forwards cubic-bezier(.36,-0.01,.5,1.38) zoomOut;animation-delay: 0.36363636363636365s;opacity: 0}svg#freepik_stories-pleasant-surprise.animated #elevu66ioi0ao {animation: 1s 1 forwards cubic-bezier(.36,-0.01,.5,1.38) zoomOut;animation-delay: 0.38636363636363635s;opacity: 0}svg#freepik_stories-pleasant-surprise.animated #elyv3duwawtwp {animation: 1s 1 forwards cubic-bezier(.36,-0.01,.5,1.38) zoomOut;animation-delay: 0.4090909090909091s;opacity: 0}svg#freepik_stories-pleasant-surprise.animated #el7etacbf6c3f {animation: 1s 1 forwards cubic-bezier(.36,-0.01,.5,1.38) zoomOut;animation-delay: 0.4318181818181818s;opacity: 0}svg#freepik_stories-pleasant-surprise.animated #eldjb78s6qak {animation: 1s 1 forwards cubic-bezier(.36,-0.01,.5,1.38) zoomOut;animation-delay: 0.4545454545454546s;opacity: 0}svg#freepik_stories-pleasant-surprise.animated #elxx9x3p1w32 {animation: 1s 1 forwards cubic-bezier(.36,-0.01,.5,1.38) zoomOut;animation-delay: 0.4772727272727273s;opacity: 0}svg#freepik_stories-pleasant-surprise.animated #elf9pfipqa5i8 {animation: 1s 1 forwards cubic-bezier(.36,-0.01,.5,1.38) zoomOut;animation-delay: 0.5s;opacity: 0}svg#freepik_stories-pleasant-surprise.animated #elka6oxzjhcg {animation: 1s 1 forwards cubic-bezier(.36,-0.01,.5,1.38) zoomOut;animation-delay: 0.5227272727272727s;opacity: 0}svg#freepik_stories-pleasant-surprise.animated #elaorkymbui0b {animation: 1s 1 forwards cubic-bezier(.36,-0.01,.5,1.38) zoomOut;animation-delay: 0.5454545454545454s;opacity: 0}svg#freepik_stories-pleasant-surprise.animated #elmi6wz7af5p {animation: 1s 1 forwards cubic-bezier(.36,-0.01,.5,1.38) zoomOut;animation-delay: 0.5681818181818182s;opacity: 0}svg#freepik_stories-pleasant-surprise.animated #elb94i4o77abf {animation: 1s 1 forwards cubic-bezier(.36,-0.01,.5,1.38) zoomOut;animation-delay: 0.5909090909090909s;opacity: 0}svg#freepik_stories-pleasant-surprise.animated #elufayo3c20hq {animation: 1s 1 forwards cubic-bezier(.36,-0.01,.5,1.38) zoomOut;animation-delay: 0.6136363636363636s;opacity: 0}svg#freepik_stories-pleasant-surprise.animated #elkpja6wk3by {animation: 1s 1 forwards cubic-bezier(.36,-0.01,.5,1.38) zoomOut;animation-delay: 0.6363636363636364s;opacity: 0}svg#freepik_stories-pleasant-surprise.animated #elp04mc7i1tc {animation: 1s 1 forwards cubic-bezier(.36,-0.01,.5,1.38) zoomOut;animation-delay: 0.6590909090909091s;opacity: 0}svg#freepik_stories-pleasant-surprise.animated #el2ht7x4nypl1 {animation: 1s 1 forwards cubic-bezier(.36,-0.01,.5,1.38) zoomOut;animation-delay: 0.6818181818181819s;opacity: 0}svg#freepik_stories-pleasant-surprise.animated #ellsgb3pfmiz9 {animation: 1s 1 forwards cubic-bezier(.36,-0.01,.5,1.38) zoomOut;animation-delay: 0.7045454545454546s;opacity: 0}svg#freepik_stories-pleasant-surprise.animated #elo54j1uu80l9 {animation: 1s 1 forwards cubic-bezier(.36,-0.01,.5,1.38) zoomOut;animation-delay: 0.7272727272727273s;opacity: 0}svg#freepik_stories-pleasant-surprise.animated #eltkn2lctn1jf {animation: 1s 1 forwards cubic-bezier(.36,-0.01,.5,1.38) zoomOut;animation-delay: 0.75s;opacity: 0}svg#freepik_stories-pleasant-surprise.animated #eljp1zfrtsk5a {animation: 1s 1 forwards cubic-bezier(.36,-0.01,.5,1.38) zoomOut;animation-delay: 0.7727272727272727s;opacity: 0}svg#freepik_stories-pleasant-surprise.animated #el3nblevjhn82 {animation: 1s 1 forwards cubic-bezier(.36,-0.01,.5,1.38) zoomOut;animation-delay: 0.7954545454545455s;opacity: 0}svg#freepik_stories-pleasant-surprise.animated #elldev2o69u3l {animation: 1s 1 forwards cubic-bezier(.36,-0.01,.5,1.38) zoomOut;animation-delay: 0.8181818181818182s;opacity: 0}svg#freepik_stories-pleasant-surprise.animated #elmuk0zlady8i {animation: 1s 1 forwards cubic-bezier(.36,-0.01,.5,1.38) zoomOut;animation-delay: 0.8409090909090909s;opacity: 0}svg#freepik_stories-pleasant-surprise.animated #elrb7ggdk7h7 {animation: 1s 1 forwards cubic-bezier(.36,-0.01,.5,1.38) zoomOut;animation-delay: 0.8636363636363636s;opacity: 0}svg#freepik_stories-pleasant-surprise.animated #eli6wi9cwqmne {animation: 1s 1 forwards cubic-bezier(.36,-0.01,.5,1.38) zoomOut;animation-delay: 0.8863636363636364s;opacity: 0}svg#freepik_stories-pleasant-surprise.animated #elpkk87cnsjo {animation: 1s 1 forwards cubic-bezier(.36,-0.01,.5,1.38) zoomOut;animation-delay: 0.9090909090909092s;opacity: 0}svg#freepik_stories-pleasant-surprise.animated #elng0ynh2v8fs {animation: 1s 1 forwards cubic-bezier(.36,-0.01,.5,1.38) zoomOut;animation-delay: 0.9318181818181819s;opacity: 0}svg#freepik_stories-pleasant-surprise.animated #elwuhqh8zy4 {animation: 1s 1 forwards cubic-bezier(.36,-0.01,.5,1.38) zoomOut;animation-delay: 0.9545454545454546s;opacity: 0}svg#freepik_stories-pleasant-surprise.animated #el4w9pjli3pk {animation: 1s 1 forwards cubic-bezier(.36,-0.01,.5,1.38) zoomOut;animation-delay: 0.9772727272727273s;opacity: 0}svg#freepik_stories-pleasant-surprise.animated #freepik--speech-bubble--inject-106 {animation: 1s 1 forwards cubic-bezier(.36,-0.01,.5,1.38) zoomOut,6s Infinite  linear floating;animation-delay: 0s,1s;}svg#freepik_stories-pleasant-surprise.animated #freepik--Lines--inject-106 {animation: 1s 1 forwards cubic-bezier(.36,-0.01,.5,1.38) slideDown,6s Infinite  linear floating;animation-delay: 0s,1s;}svg#freepik_stories-pleasant-surprise.animated #freepik--Table--inject-106 {animation: 1s 1 forwards cubic-bezier(.36,-0.01,.5,1.38) fadeIn;animation-delay: 0s;}            @keyframes zoomIn {                0% {                    opacity: 0;                    transform: scale(0.5);                }                100% {                    opacity: 1;                    transform: scale(1);                }            }                    @keyframes slideRight {                0% {                    opacity: 0;                    transform: translateX(30px);                }                100% {                    opacity: 1;                    transform: translateX(0);                }            }                    @keyframes zoomOut {                0% {                    opacity: 0;                    transform: scale(1.5);                }                100% {                    opacity: 1;                    transform: scale(1);                }            }                    @keyframes slideLeft {                0% {                    opacity: 0;                    transform: translateX(-30px);                }                100% {                    opacity: 1;                    transform: translateX(0);                }            }                    @keyframes floating {                0% {                    opacity: 1;                    transform: translateY(0px);                }                50% {                    transform: translateY(-10px);                }                100% {                    opacity: 1;                    transform: translateY(0px);                }            }                    @keyframes slideDown {                0% {                    opacity: 0;                    transform: translateY(-30px);                }                100% {                    opacity: 1;                    transform: translateY(0);                }            }                    @keyframes fadeIn {                0% {                    opacity: 0;                }                100% {                    opacity: 1;                }            }        .animator-hidden { display: none; }</style><g id="freepik--background-complete--inject-106" class="animable animator-hidden" style="transform-origin: 250.255px 212.213px;"><rect x="63.73" y="74.69" width="26.48" height="11.19" style="fill: rgb(235, 235, 235); transform-origin: 76.97px 80.285px;" id="el91vzref5ora" class="animable"></rect><rect x="48.96" y="60.58" width="26.48" height="11.19" style="fill: rgb(235, 235, 235); transform-origin: 62.2px 66.175px;" id="eljsw4zeaps2h" class="animable"></rect><rect x="78.5" y="60.58" width="26.48" height="11.19" style="fill: rgb(235, 235, 235); transform-origin: 91.74px 66.175px;" id="el8jrsgsvy1gl" class="animable"></rect><rect x="409.79" y="60.58" width="26.48" height="11.19" style="fill: rgb(235, 235, 235); transform-origin: 423.03px 66.175px;" id="elil0dcoeldu" class="animable"></rect><rect x="409.79" y="362.53" width="26.48" height="11.19" style="fill: rgb(235, 235, 235); transform-origin: 423.03px 368.125px;" id="elm2xi02twe6n" class="animable"></rect><rect x="424.56" y="348.42" width="26.48" height="11.19" style="fill: rgb(235, 235, 235); transform-origin: 437.8px 354.015px;" id="elv8teby4ndtl" class="animable"></rect><rect x="305.82" y="306.57" width="26.48" height="11.19" style="fill: rgb(235, 235, 235); transform-origin: 319.06px 312.165px;" id="el0is5ayluia5m" class="animable"></rect><rect x="48.96" y="362.52" width="26.48" height="11.19" style="fill: rgb(235, 235, 235); transform-origin: 62.2px 368.115px;" id="elor2le2ok27q" class="animable"></rect><g id="elgh9x5v2ylsg"><rect x="253.19" y="123.01" width="26.48" height="11.19" style="fill: rgb(235, 235, 235); transform-origin: 266.43px 128.605px; transform: rotate(180deg);" class="animable"></rect></g><g id="eltg3fscqdw0p"><rect x="267.96" y="137.12" width="26.48" height="11.19" style="fill: rgb(235, 235, 235); transform-origin: 281.2px 142.715px; transform: rotate(180deg);" class="animable"></rect></g><rect x="56.15" y="66.52" width="66.33" height="66.33" style="fill: rgb(255, 255, 255); transform-origin: 89.315px 99.685px;" id="el64nugl6myr3" class="animable"></rect><path d="M52.7,63.07v73.24h73.23V63.07Zm69.78,69.79H56.15V66.52h66.33Z" style="fill: rgb(219, 219, 219); transform-origin: 89.315px 99.69px;" id="el72stltg57vw" class="animable"></path><g id="elb7768gy5sr"><rect x="80.39" y="82.7" width="22.93" height="51.7" style="fill: rgb(235, 235, 235); transform-origin: 91.855px 108.55px; transform: rotate(90deg);" class="animable"></rect></g><g id="eluuzwwna0mws"><rect x="76.07" y="86.45" width="26.49" height="26.49" style="fill: rgb(199, 199, 199); transform-origin: 89.315px 99.695px; transform: rotate(90deg);" class="animable"></rect></g><rect x="125.93" y="63.07" width="2.83" height="73.24" style="fill: rgb(199, 199, 199); transform-origin: 127.345px 99.69px;" id="elkbeq4i0q05r" class="animable"></rect><rect x="56.15" y="160.71" width="66.33" height="66.33" style="fill: rgb(255, 255, 255); transform-origin: 89.315px 193.875px;" id="elbvvb1xrziyo" class="animable"></rect><rect x="67.55" y="171.32" width="17.32" height="50.03" style="fill: rgb(199, 199, 199); transform-origin: 76.21px 196.335px;" id="elfjnut347h4k" class="animable"></rect><path d="M52.7,157.26v73.23h73.23V157.26ZM122.48,227H56.15V160.71h66.33Z" style="fill: rgb(219, 219, 219); transform-origin: 89.315px 193.875px;" id="el4975ka156kn" class="animable"></path><rect x="76.07" y="180.63" width="26.49" height="26.49" style="fill: rgb(235, 235, 235); transform-origin: 89.315px 193.875px;" id="elt8uxqrzu3ha" class="animable"></rect><rect x="125.93" y="157.26" width="2.83" height="73.24" style="fill: rgb(199, 199, 199); transform-origin: 127.345px 193.88px;" id="el2jmypahyrw9" class="animable"></rect><rect x="56.15" y="254.9" width="66.33" height="66.33" style="fill: rgb(255, 255, 255); transform-origin: 89.315px 288.065px;" id="eloiiah6v4gxm" class="animable"></rect><rect x="63.51" y="263.94" width="36.4" height="21.76" style="fill: rgb(235, 235, 235); transform-origin: 81.71px 274.82px;" id="eluv1iblj2ja" class="animable"></rect><path d="M52.7,251.45v73.23h73.23V251.45Zm69.78,69.78H56.15V254.9h66.33Z" style="fill: rgb(219, 219, 219); transform-origin: 89.315px 288.065px;" id="elue3w0v9ukkk" class="animable"></path><rect x="76.07" y="274.82" width="26.49" height="26.49" style="fill: rgb(199, 199, 199); transform-origin: 89.315px 288.065px;" id="el3xt0pfotld" class="animable"></rect><rect x="125.93" y="251.45" width="2.83" height="73.24" style="fill: rgb(199, 199, 199); transform-origin: 127.345px 288.07px;" id="elcohysuevud5" class="animable"></rect><g id="el4zf3qpfr2vy"><rect x="321.17" y="108.26" width="130.38" height="7.74" style="fill: rgb(235, 235, 235); transform-origin: 386.36px 112.13px; transform: rotate(180deg);" class="animable"></rect></g><rect x="433.91" y="116" width="7.74" height="25.6" style="fill: rgb(235, 235, 235); transform-origin: 437.78px 128.8px;" id="elhjrovnmotcj" class="animable"></rect><rect x="433.91" y="116" width="7.74" height="7.91" style="fill: rgb(219, 219, 219); transform-origin: 437.78px 119.955px;" id="elmdtin1w1h8a" class="animable"></rect><rect x="331.06" y="116" width="7.74" height="25.6" style="fill: rgb(235, 235, 235); transform-origin: 334.93px 128.8px;" id="el3yyq6b9p6lh" class="animable"></rect><rect x="331.06" y="116" width="7.74" height="7.91" style="fill: rgb(219, 219, 219); transform-origin: 334.93px 119.955px;" id="elhi7ut2eox1n" class="animable"></rect><g id="eli39njwj6s1p"><rect x="387.71" y="77.38" width="49.34" height="12.42" style="fill: rgb(199, 199, 199); transform-origin: 412.38px 83.59px; transform: rotate(90deg);" class="animable"></rect></g><g id="elh1jfj6wr6d"><rect x="409.67" y="52.78" width="5.42" height="12.42" style="fill: rgb(219, 219, 219); transform-origin: 412.38px 58.99px; transform: rotate(90deg);" class="animable"></rect></g><g id="elsh5ej4x7y8s"><rect x="411.38" y="63.45" width="2.01" height="12.42" style="fill: rgb(219, 219, 219); transform-origin: 412.385px 69.66px; transform: rotate(90deg);" class="animable"></rect></g><g id="elg1fbzo4sgo6"><rect x="408.9" y="92.09" width="5.42" height="13.97" style="fill: rgb(219, 219, 219); transform-origin: 411.61px 99.075px; transform: rotate(90deg);" class="animable"></rect></g><g id="ell6sx1pzaied"><rect x="373.05" y="75.14" width="57.55" height="8.68" style="fill: rgb(219, 219, 219); transform-origin: 401.825px 79.48px; transform: rotate(90deg);" class="animable"></rect></g><g id="elyfu3pskqa3p"><rect x="390.8" y="64.58" width="22.14" height="5.21" style="fill: rgb(235, 235, 235); transform-origin: 401.87px 67.185px; transform: rotate(90deg);" class="animable"></rect></g><g id="elwfvk302o5m"><rect x="330.45" y="80.61" width="57.55" height="8.68" style="fill: rgb(199, 199, 199); transform-origin: 359.225px 84.95px; transform: rotate(135.33deg);" class="animable"></rect></g><g id="elnfa9mph5g77"><rect x="345.15" y="85.28" width="22.14" height="5.21" style="fill: rgb(219, 219, 219); transform-origin: 356.22px 87.885px; transform: rotate(135.33deg);" class="animable"></rect></g><g id="el0kavj237fvzp"><rect x="368.26" y="79.04" width="43.72" height="14.75" style="fill: rgb(166, 166, 166); transform-origin: 390.12px 86.415px; transform: rotate(90deg);" class="animable"></rect></g><g id="elfwkhi7eqrrd"><rect x="388.08" y="94.23" width="4.07" height="14.75" style="fill: rgb(199, 199, 199); transform-origin: 390.115px 101.605px; transform: rotate(90deg);" class="animable"></rect></g><g id="el3qipx2tf16r"><rect x="389.33" y="88.72" width="1.58" height="14.75" style="fill: rgb(199, 199, 199); transform-origin: 390.12px 96.095px; transform: rotate(90deg);" class="animable"></rect></g><g id="elg1eufu8ug17"><rect x="403.15" y="82.64" width="41.08" height="10.19" style="fill: rgb(166, 166, 166); transform-origin: 423.69px 87.735px; transform: rotate(90deg);" class="animable"></rect></g><g id="elmbtjcy6gi2i"><rect x="421.77" y="96.91" width="3.83" height="10.19" style="fill: rgb(199, 199, 199); transform-origin: 423.685px 102.005px; transform: rotate(90deg);" class="animable"></rect></g><g id="eleimm1sfdn67"><rect x="421.77" y="72.48" width="3.83" height="10.19" style="fill: rgb(199, 199, 199); transform-origin: 423.685px 77.575px; transform: rotate(90deg);" class="animable"></rect></g><g id="eln9noi0msije"><rect x="422.95" y="77.76" width="1.48" height="10.19" style="fill: rgb(199, 199, 199); transform-origin: 423.69px 82.855px; transform: rotate(90deg);" class="animable"></rect></g></g><g id="freepik--Character--inject-106" class="animable" style="transform-origin: 181.879px 274.568px;"><path d="M223.88,255.59c39.08,47.09,69.41,84,67.35,100-4.63,35.78-24.1,40.88-27.59,40.1-23.79-5.34-58.15-87.69-71.09-129.53C181,228.79,203,230.47,223.88,255.59Z" style="fill: rgb(126, 87, 194); transform-origin: 240.346px 316.542px;" id="elca9jsdh64fq" class="animable"></path><g id="eljilaw4ze5e"><path d="M288,341.85a77.31,77.31,0,0,0-11,8.08c-5,4.36-9.53,9.1-14.74,13.17a83.63,83.63,0,0,1-15.41,9.64c-1.76.84-3.54,1.63-5.35,2.33q-1.67-2.43-3.33-5.06a76.82,76.82,0,0,0,16.28-8.54c5.24-3.58,9.94-7.86,14.87-11.84a99.81,99.81,0,0,1,15-10.08q1-.57,2.1-1.11C287,339.61,287.54,340.75,288,341.85ZM272.09,316a84.47,84.47,0,0,1-10.77,3.14c-16.68,3.35-30.87-7.09-45.14-14.46A98.06,98.06,0,0,1,230,291.58a50.27,50.27,0,0,1,11.64-6.69,48.67,48.67,0,0,1,5-1.66l-3.71-4.56a49.71,49.71,0,0,0-11.6,5.15c-7.74,4.74-14.1,11.4-20.14,18.08l-.23.25-1.05-.46q-2.76-1.17-5.59-2.13c1.62,4.19,3.33,8.46,5.11,12.76.55-.63,1.1-1.27,1.66-1.9l1-1.15c5.08,2.51,10,5.39,15,8,8.27,4.36,17.37,8.46,26.92,8.25,5.38-.12,10.44-1.93,15.31-4.07l5.06-2.24C273.65,318.18,272.88,317.09,272.09,316Zm-52.63-65.36a76,76,0,0,1-7.75,3.78c-6.89,2.93-14.57,2.68-21.76,1a42.08,42.08,0,0,1-.59-6.27,51.9,51.9,0,0,0,5.33,1.11,40.62,40.62,0,0,0,11,.07,37.52,37.52,0,0,0,9.3-2.05c-4.26-1.46-8.55-2.81-12.92-3.88a72.27,72.27,0,0,0-11.76-1.93,7.2,7.2,0,0,1,6.67-5.16c2.16.35,4.3.8,6.43,1.32C208.21,240.62,213.79,244.71,219.46,250.63Z" style="opacity: 0.1; transform-origin: 238.68px 306.19px;" class="animable"></path></g><g id="elqi6vn7jtm3l"><path d="M261.37,394.92c-23.65-9.74-56.28-88.28-68.82-128.8-3.9-12.61-4-20.76-1.54-25.08Z" style="opacity: 0.1; transform-origin: 225.363px 317.98px;" class="animable"></path></g><path d="M237,439.28,56.39,439c.45-3.72,38.13-171.26,81.82-209.85,15-13.26,43.71-3.41,47.31-.47C220.46,257.18,239.64,437.1,237,439.28Z" style="fill: rgb(126, 87, 194); transform-origin: 146.815px 330.839px;" id="elt33nz0eui7d" class="animable"></path><path d="M237,439.28,56.39,439c.06-.5.78-3.91,2.1-9.53.07-.35.16-.7.24-1.06,1.24-5.27,2.94-12.27,5.05-20.52.54-2.12,1.11-4.33,1.71-6.61,5.08-19.36,12.07-44.05,20.41-68.9.61-1.84,1.24-3.68,1.87-5.53.42-1.22.85-2.43,1.27-3.65l1.45-4.11a488.69,488.69,0,0,1,19.83-48.34q1.32-2.7,2.65-5.31c5.46-10.71,11.15-20.1,17-27.44a75.17,75.17,0,0,1,5.5-6.24c.91-.93,1.83-1.8,2.75-2.61,15-13.26,43.71-3.41,47.31-.47a37.53,37.53,0,0,1,7.09,8.1,72.49,72.49,0,0,1,3.94,6.52q1.86,3.45,3.66,7.43,1.26,2.81,2.49,5.85c4.7,11.63,9,25.67,12.75,40.75.54,2.12,1.06,4.27,1.58,6.44.12.52.25,1.05.37,1.57q.9,3.81,1.76,7.67c4.43,19.86,8.09,40.63,10.92,59.46q.46,3,.88,5.89c1.16,8,2.16,15.55,3,22.45.15,1.27.31,2.52.45,3.75C236.82,424.88,237.73,438.69,237,439.28Z" style="fill: rgb(126, 87, 194); transform-origin: 146.818px 330.839px;" id="elvgg2v4monr" class="animable"></path><g id="el008gr9ivrjwm"><path d="M234.42,404.53c-3.27,1.33-6.45,2.87-9.62,4.43-5.68,2.81-11.45,5.86-17.63,7.43a34.9,34.9,0,0,1-17.55.05c-10.52-2.77-19-10-27.31-16.73a97.58,97.58,0,0,0-16.24-11.21l-.58.39c-8,5.48-15.35,11.78-22.81,17.93s-15.29,12.31-24,16.66c-9.3,4.64-19.29,7.49-29.76,7.2a59,59,0,0,1-10.42-1.24c.07-.35.16-.7.24-1.06a54,54,0,0,0,20.46-.33C89,425.94,97.53,420.9,105.5,415c12-9,22.38-20.21,34.43-29.15A44.42,44.42,0,0,0,133.2,384c-12-2.25-24.7.09-35.55,5.56-10.55,5.32-20,12.62-30.93,17.22-1,.4-1.94.78-2.94,1.12.54-2.12,1.11-4.33,1.71-6.61A118.62,118.62,0,0,0,76,395.46c10.14-6.12,19.94-12.94,31.53-16,12.22-3.28,25.37-3,37.16,1.76.41.17.81.34,1.2.52,1.63-1,3.29-2,5-3a61.85,61.85,0,0,1,31.2-7.59c13.14.27,26.14,3.51,39.32,2.6a56,56,0,0,0,8.67-1.29q.46,3,.88,5.89l-1.2.25a74.8,74.8,0,0,1-19.48,1c-13-.87-26.26-4-39.29-1.83a57.89,57.89,0,0,0-19,7.06c7,4.16,13.18,9.66,19.53,14.69,7.85,6.2,16.73,12.24,27.14,12.1,12.42-.16,23.41-7,34.93-10.72l.39-.12C234.12,402.05,234.28,403.3,234.42,404.53Zm-17-99.22-1.22-.64.85-.93c-.52-2.17-1-4.32-1.58-6.44-1.44,1.52-2.86,3.06-4.25,4.6l-.23.25-1.05-.46a74.42,74.42,0,0,0-31.2-6c-10.4.28-20.37,3-30,6.91-9.44,3.83-18.56,8.41-28.16,11.84a77,77,0,0,1-26.52,4.73c-1.2,0-2.39-.05-3.59-.12L89,323.17a67.71,67.71,0,0,0,23.33-.5c10.08-2.05,19.45-6.3,28.81-10.41s18.86-8.2,29-9.81a68.28,68.28,0,0,1,31,2.3c1.92.59,3.79,1.31,5.64,2.08a162.58,162.58,0,0,1-14.56,14.9,53.9,53.9,0,0,1-25.67,12.67c-23.51,4.43-46.88-4.73-70.06-7.09-2.88-.29-5.8-.46-8.72-.49-.63,1.85-1.26,3.69-1.87,5.53,1.75,0,3.5.14,5.26.29,23.75,2.08,47.17,10.95,71.23,8.31a58.64,58.64,0,0,0,29.09-11.06c7.41-5.55,13.55-12.53,19.62-19.47l1-1.15c2.38,1.17,4.72,2.43,7,3.71Q218.31,309.13,217.4,305.31Zm-14.7-48.76a43.82,43.82,0,0,1-14-1.41c-7.66-1.94-14.84-5.31-22-8.6-3.14,1.27-6.21,2.72-9.2,4.25-7.28,3.73-14.26,8-21.54,11.75a74.82,74.82,0,0,1-23.12,7.87c-.82.12-1.64.23-2.46.31q1.32-2.7,2.65-5.31a61.28,61.28,0,0,0,6.16-1.79c14.28-5,26.55-13.93,40.14-20.34a77.45,77.45,0,0,0-15.59-5A41.36,41.36,0,0,0,130,238a75.17,75.17,0,0,1,5.5-6.24,49.12,49.12,0,0,1,14.48,1.94,122.36,122.36,0,0,1,16.82,6.47,57.51,57.51,0,0,1,18.37-3.71,60.14,60.14,0,0,1,7.48.32,72.49,72.49,0,0,1,3.94,6.52,53.73,53.73,0,0,0-17.17-.37c-1.51.23-3,.55-4.47.92,6.42,2.85,12.82,5.42,19.78,6.47a37.31,37.31,0,0,0,5.52.41Q201.47,253.51,202.7,256.55Z" style="opacity: 0.1; transform-origin: 146.46px 331.227px;" class="animable"></path></g><path d="M179.52,275.76S147,248.07,127.35,250.11l-15.72,16s-5.37,2.18-7.31-1.19c-4.8-8.32-7.07-29.1,9.92-43.85,15.56-13.51,42.49-14.44,65.31-10.07,21.92,4.19,41.57,17.19,35.93,31.69S179.52,275.76,179.52,275.76Z" style="fill: rgb(126, 87, 194); transform-origin: 158.651px 242.213px;" id="elziczudy3vj" class="animable"></path><g id="elj7iri8y72qn"><path d="M181.22,269s23.48-19.32,25.31-30S186.75,219.87,173,216.88c-21.33-4.61-35.49-2.29-46.44,9.68S181.22,269,181.22,269Z" style="opacity: 0.1; transform-origin: 165.983px 241.836px;" class="animable"></path></g><path d="M178.87,267.71c-10.71.34-25.07-18.84-29.43-32.9-.29-1,2.9-9.84,6.26-20.81,2-6.66,4.11-14.13,5.52-21.08.28-1.42,41.44,19.46,41.44,19.46s-7.25,13.69-9.64,25.83a15.64,15.64,0,0,0-.28,2.91,4.55,4.55,0,0,1,0,.48C192.49,247.2,189.22,267.37,178.87,267.71Z" style="fill: rgb(211, 118, 106); transform-origin: 176.041px 230.283px;" id="el2hswy3onlps" class="animable"></path><path d="M163.86,193.65c-.36,12.16,1.17,42,24.33,47.29a27.07,27.07,0,0,0,4.51.67,2.29,2.29,0,0,0,0-.49,17.51,17.51,0,0,1,.27-2.91c2.39-12.15,9.65-25.85,9.65-25.85S173,197.3,163.86,193.65Z" style="fill: rgb(38, 50, 56); transform-origin: 183.219px 217.63px;" id="elo4h1pmrw00r" class="animable"></path><path d="M171.88,136.72c-9.45,13.52-15.58,59.43-8,72.56,10.92,19,35.82,28.58,53.75,13.84,17.38-14.28,24.32-74.26,15.25-86.9C219.48,117.59,185.83,116.76,171.88,136.72Z" style="fill: rgb(211, 118, 106); transform-origin: 198.672px 176.152px;" id="elllv9uzc359" class="animable"></path><path d="M205.73,177c0-.12-.26.13-.27.25-.21,3.12-1,6.65-3.89,7.4-.09,0-.1.18,0,.17C205.05,184.64,206,180,205.73,177Z" style="fill: rgb(38, 50, 56); transform-origin: 203.636px 180.894px;" id="el0puifb2vbj" class="animable"></path><path d="M203.28,173.44c-5-.88-6.35,9.1-1.76,9.91S207.43,174.18,203.28,173.44Z" style="fill: rgb(38, 50, 56); transform-origin: 202.244px 178.391px;" id="eltzqa4oakfla" class="animable"></path><path d="M223,179.47c0-.11.22.18.2.31-.53,3.08-.62,6.69,2,8.1.08.05,0,.2-.05.17C221.85,187.1,222,182.3,223,179.47Z" style="fill: rgb(38, 50, 56); transform-origin: 223.802px 183.75px;" id="elbqbwfnvvixf" class="animable"></path><path d="M226.22,176.63c5,.32,4,10.34-.64,10.05S222,176.37,226.22,176.63Z" style="fill: rgb(38, 50, 56); transform-origin: 226.044px 181.656px;" id="el67c26rsyd3f" class="animable"></path><path d="M199.57,165.17a38.15,38.15,0,0,0,4.14-.1c1.58,0,2.85.07,4.2-.9a2.12,2.12,0,0,0,.47-2.55c-1-1.74-3-2.16-4.89-2.18a7.75,7.75,0,0,0-5.29,1.81C196.63,162.5,197.71,165,199.57,165.17Z" style="fill: rgb(38, 50, 56); transform-origin: 203.03px 162.311px;" id="elyfat12533s" class="animable"></path><path d="M231.81,170a39.84,39.84,0,0,1-3.82-1.58c-1.46-.62-2.68-1-3.59-2.36a2.13,2.13,0,0,1,.49-2.55c1.58-1.26,3.55-.94,5.34-.26a7.75,7.75,0,0,1,4.28,3.59C235.52,168.57,233.59,170.54,231.81,170Z" style="fill: rgb(38, 50, 56); transform-origin: 229.481px 166.372px;" id="elfgw6rqwuwg" class="animable"></path><path d="M196.55,205c.64.83,1.24,1.93,2.35,2.18a8.33,8.33,0,0,0,3.43-.31.1.1,0,0,1,.11.17,4.2,4.2,0,0,1-4.16,1.13,3.31,3.31,0,0,1-2-3.07C196.21,204.86,196.46,204.83,196.55,205Z" style="fill: rgb(38, 50, 56); transform-origin: 199.377px 206.609px;" id="el9pf1btuwi8m" class="animable"></path><path d="M201.09,196.15a10.65,10.65,0,0,0,6.37,5.67,13.23,13.23,0,0,0,3.76.7,3.68,3.68,0,0,0,.74,0c.23,0,.43,0,.69,0a.75.75,0,0,0,.71-.61v0a1.69,1.69,0,0,0,0-.32v0l0-.27c.39-2.37.67-6,.67-6,.81.55,5,3.17,5.07,1.91.82-10.37,1.74-21.91.37-32.41a.29.29,0,0,0-.58,0c-1.19,9.94-.62,20-1.65,30-1.34-.74-3.51-2.05-4.76-2.2-.35.05-.4,7.06-.67,8.11a.27.27,0,0,1,0,.11c-4.07,0-6.91-1.68-10.42-4.9C201.22,195.71,200.94,195.88,201.09,196.15Z" style="fill: rgb(38, 50, 56); transform-origin: 210.609px 183.534px;" id="el9p6qwkg14jh" class="animable"></path><path d="M210,201.12a12.6,12.6,0,0,1-5.54,3.17A5.6,5.6,0,0,1,201,204c-2.38-1-2.12-3.27-1.4-5.14a13.62,13.62,0,0,1,1.52-2.81A16.35,16.35,0,0,0,210,201.12Z" style="fill: rgb(38, 50, 56); transform-origin: 204.548px 200.245px;" id="elhnx8uelj2u" class="animable"></path><path d="M204.45,204.29A5.6,5.6,0,0,1,201,204c-2.38-1-2.12-3.27-1.4-5.14C202.22,199.53,204.58,201.69,204.45,204.29Z" style="fill: rgb(255, 152, 185); transform-origin: 201.776px 201.649px;" id="el9dj0vdmms5" class="animable"></path><path d="M236.42,153.78c-18.12,8.95-38.25-11.39-38.25-11.39-7.16,12.14-19.83,8.75-19.83,8.75s-7.24,27.47-14.59,26.36c-11.22-1.67-9.23-40.26-4.62-47.24s14.4-7.53,14.4-7.53,1.53-5.71,9.22-10c8.5-4.77,33.82,6.92,33.82,6.92a24.83,24.83,0,0,1,8.08-8.18,7,7,0,0,1,9.85,2.35,16.7,16.7,0,0,0-3.67,6.5c-2.5,8,4.18,8.94,5.19,1.51a11.65,11.65,0,0,0-1.52-8c4-4.38,9.6-5.18,12.5-2.12C252.25,117.24,251.49,146.34,236.42,153.78Z" style="fill: rgb(38, 50, 56); transform-origin: 202.705px 143.703px;" id="el8j1mf3fjghm" class="animable"></path><path d="M178,142.08a.37.37,0,1,0-.73.07c.19,5.74.4,11.54-.78,17.23s-6.18,19.34-14,16.52a.32.32,0,0,0-.27.58c5,3.32,9.64-3,12.07-7.5C178.68,160.82,179,151.06,178,142.08Z" style="fill: rgb(38, 50, 56); transform-origin: 170.256px 159.552px;" id="el5j8mi53vri" class="animable"></path><path d="M246.62,111.25a.05.05,0,0,0-.09.06c7,12.1,6.85,27.87-2.73,38.7-12.05,13.63-30.67,1.07-41.69-7-.54-.4-1.23.37-.69.79,10.66,8.27,29.67,20.43,42,8.24C254.35,141.12,254.65,123.73,246.62,111.25Z" style="fill: rgb(38, 50, 56); transform-origin: 226.707px 134.213px;" id="eliuhj34tl1ec" class="animable"></path><path d="M175.9,123c-11.19-.4-19.82,3.68-22.58,15.2s.13,24.44,6.91,34a.44.44,0,0,0,.72-.49c-4.58-7.95-7.64-16.42-7.4-25.72.18-6.88,2.07-14.32,7.57-18.91,4-3.31,9.95-3.38,14.82-3.63C176.22,123.45,176.17,123.05,175.9,123Z" style="fill: rgb(38, 50, 56); transform-origin: 164.205px 147.658px;" id="elva2ahy63x9r" class="animable"></path><path d="M219.52,122.46c-12.54-10.39-38.63-22.27-45.85.13-.06.19.25.29.32.11,8.54-22.26,32-8.36,45.17.31C219.48,123.22,219.81,122.7,219.52,122.46Z" style="fill: rgb(38, 50, 56); transform-origin: 196.647px 116.458px;" id="ela403p4jyh1" class="animable"></path><path d="M172.65,176.27s-5.6-17.08-13.06-15.5S153.36,185,160,190.1a8,8,0,0,0,11.48-1Z" style="fill: rgb(211, 118, 106); transform-origin: 163.57px 176.369px;" id="elrfga22pjmmr" class="animable"></path><path d="M160.11,167.26a.11.11,0,0,0-.1.19c4.62,3.73,5.92,9.45,6.33,15.1-1-2.42-2.79-4.13-6-3.06-.16.06-.1.31.06.33a4.91,4.91,0,0,1,4.68,3.2,23.84,23.84,0,0,1,1.21,4.93c.1.55,1,.55,1,0a.66.66,0,0,1,0-.14C169.49,181.1,167.11,170.12,160.11,167.26Z" style="fill: rgb(38, 50, 56); transform-origin: 164.027px 177.809px;" id="eli5vmzx4yu5" class="animable"></path><path d="M181.22,269s-27.25-39.64-58-41.63l4.14,22.73s18.18-1.21,52.17,25.65Z" style="fill: rgb(126, 87, 194); transform-origin: 152.22px 251.56px;" id="eloj0bwjv76fj" class="animable"></path><path d="M119.16,251.09c5.53-1.08,11.16-.22,16.51,1.07a72.17,72.17,0,0,1,15.46,6,125.51,125.51,0,0,1,14.29,8.48l6.74,4.91,6.52,5.22.73.59.74-.45a139.33,139.33,0,0,0,15.75-11,77.76,77.76,0,0,0,7.18-6.4,48.52,48.52,0,0,0,6.15-7.35c-4.2,4.81-9.25,8.68-14.36,12.4-2.56,1.85-5.21,3.58-7.89,5.26s-5.37,3.37-8.1,4.9l1.47.14-6.54-5.41c-2.25-1.71-4.55-3.37-6.85-5s-4.75-3.09-7.2-4.52-5-2.78-7.58-3.9a66.7,66.7,0,0,0-16.18-5.3c-1.39-.29-2.81-.43-4.22-.62s-2.84-.19-4.26-.16A24.86,24.86,0,0,0,119.16,251.09Z" style="fill: rgb(38, 50, 56); transform-origin: 164.195px 263.647px;" id="elsu6mpxacfh9" class="animable"></path><path d="M111.63,266.12a84.21,84.21,0,0,0,8.35-7.53,82.94,82.94,0,0,0,7.37-8.48,81.81,81.81,0,0,0-8.35,7.52A83.06,83.06,0,0,0,111.63,266.12Z" style="fill: rgb(38, 50, 56); transform-origin: 119.49px 258.115px;" id="eljppo70eez" class="animable"></path><path d="M167.71,260.1A169,169,0,0,0,164.17,289c-.29,6.76,1.79,31.09,9.33,30.38s-4.37-16.64-6.24-29.49c-1.9-13,1.75-22.15,2.38-29.81Z" style="fill: rgb(126, 87, 194); transform-origin: 170.06px 289.738px;" id="elrdram35757j" class="animable"></path><g id="elo1dbpq2s09"><g style="opacity: 0.1; transform-origin: 170.06px 289.738px;" class="animable"><path d="M167.71,260.1A169,169,0,0,0,164.17,289c-.29,6.76,1.79,31.09,9.33,30.38s-4.37-16.64-6.24-29.49c-1.9-13,1.75-22.15,2.38-29.81Z" id="elz0myf8s57v" class="animable" style="transform-origin: 170.06px 289.738px;"></path></g></g><path d="M195.24,259.13a153,153,0,0,1,5,25.87c.7,6.1.37,28.25-6.49,28.08s2.89-15.34,3.76-27.08c.89-11.92-3-19.92-4-26.81Z" style="fill: rgb(126, 87, 194); transform-origin: 195.907px 286.105px;" id="elkhg73pug8c" class="animable"></path><g id="eluybgz07tgb"><g style="opacity: 0.1; transform-origin: 195.907px 286.105px;" class="animable"><path d="M195.24,259.13a153,153,0,0,1,5,25.87c.7,6.1.37,28.25-6.49,28.08s2.89-15.34,3.76-27.08c.89-11.92-3-19.92-4-26.81Z" id="elxzoynjxtd8j" class="animable" style="transform-origin: 195.907px 286.105px;"></path></g></g><path d="M263.26,388.24c-13.76-12.46-33.71-51.55-53.6-110.57-3.25-9.65,51.66-39.24,56.21-29.35,5.73,12.46,36,84.45,36.93,88.25C311,368.69,272.4,396.52,263.26,388.24Z" style="fill: rgb(211, 118, 106); transform-origin: 256.728px 318.02px;" id="elkf21ef1oqnf" class="animable"></path><path d="M204.31,245.32c-2.25,12.05,5.16,31.69,5.16,31.69l58.91-22.46s-4.87-19.21-2.57-29.49c.67-3,3.52-18.75,7.27-33.87,4.25-17.17,6.51-35.71,5.49-37.58-2-3.6-8.7-2.3-14.29,8.57s-12.82,34-13.62,35.24a9.87,9.87,0,0,1-1,1.1h0c-.59.31-17.93-.63-22.87,5.47S204,243.11,204.31,245.32Z" style="fill: rgb(211, 118, 106); transform-origin: 241.349px 214.411px;" id="eljd97dpcmto9" class="animable"></path><path d="M248.57,221.12s19-23,19.45-29.15,9.14-42.82,7.25-46.46-8.7-2.3-14.29,8.57-12.82,34-13.62,35.25S226.79,207.85,225.45,210,248.57,221.12,248.57,221.12Z" style="fill: rgb(211, 118, 106); transform-origin: 250.468px 182.407px;" id="elu3ao1mzrup" class="animable"></path><path d="M261.08,209.7c1.47-2.92,2.82-5.89,4.18-8.86q1-2.24,1.92-4.51c.3-.76.61-1.52.89-2.3.14-.38.27-.79.4-1.19a12.78,12.78,0,0,0,.28-1.26c1.25-6.37,2.48-12.79,3.67-19.2s2.34-12.8,3.33-19.29a20.63,20.63,0,0,0,.07-5,9.3,9.3,0,0,0-.64-2.5,4.15,4.15,0,0,0-1.7-2.08,3.4,3.4,0,0,0-2.66-.22,7.37,7.37,0,0,0-2.25,1.15,17.92,17.92,0,0,0-3.48,3.48,21,21,0,0,1,3.73-3.09,7.16,7.16,0,0,1,2.16-.91,2.65,2.65,0,0,1,2.06.32c1.17.79,1.57,2.45,1.69,4a19.23,19.23,0,0,1-.3,4.72c-1.28,6.35-2.53,12.78-3.71,19.18s-2.33,12.82-3.27,19.3a23.5,23.5,0,0,1-1.29,4.58c-.53,1.53-1.11,3.05-1.67,4.58Z" style="fill: rgb(38, 50, 56); transform-origin: 268.51px 176.408px;" id="elj5llknp7v2g" class="animable"></path><path d="M241.9,222s20.68-25.27,21.18-31.45,9.14-42.82,7.24-46.46-8.7-2.3-14.29,8.57-12.82,34-13.62,35.25-18.15,19.91-19.5,22S241.9,222,241.9,222Z" style="fill: rgb(211, 118, 106); transform-origin: 246.719px 182.137px;" id="el7prjwfwvuz" class="animable"></path><path d="M255.55,212.28c1.64-3.65,3.14-7.36,4.64-11.08.71-1.87,1.42-3.75,2.08-5.64.33-.95.66-1.9,1-2.87a22,22,0,0,0,.69-3q2.18-11.77,4.23-23.61l2-11.83.46-3a25.06,25.06,0,0,0,.34-3.07,12.17,12.17,0,0,0-.26-3.17,5.39,5.39,0,0,0-1.63-3,3.16,3.16,0,0,0-1.71-.72,4,4,0,0,0-1.73.24,9.19,9.19,0,0,0-2.73,1.62,27.42,27.42,0,0,0-4.17,4.46,35.1,35.1,0,0,0-5.47,10.7,37.34,37.34,0,0,1,6.12-10.17,28.11,28.11,0,0,1,4.18-4.13,8.15,8.15,0,0,1,2.44-1.34,2.17,2.17,0,0,1,2.22.34,4.17,4.17,0,0,1,1.08,2.27,12.38,12.38,0,0,1,.16,2.8c-.12,1.86-.59,3.87-.91,5.83l-2.07,11.81c-1.35,7.88-2.71,15.76-3.89,23.68a21.89,21.89,0,0,1-.54,2.88c-.25,1-.52,1.91-.81,2.86-.58,1.9-1.21,3.8-1.84,5.69Z" style="fill: rgb(38, 50, 56); transform-origin: 262.147px 176.778px;" id="eljbglf2anew" class="animable"></path><path d="M242.83,222.48s12.83-26.14,13.29-31.89,7.93-30.4,6.17-33.8-8.1-2.14-13.31,8-11.35,22.15-12.09,23.35S224.16,208,222.91,210,242.83,222.48,242.83,222.48Z" style="fill: rgb(211, 118, 106); transform-origin: 242.707px 188.788px;" id="elpr0dfzlf1sn" class="animable"></path><path d="M248.41,216.57c2-4.76,3.87-9.55,5.78-14.34,1-2.39,1.89-4.79,2.81-7.2l.68-1.81a14.33,14.33,0,0,0,.58-1.9c.32-1.26.59-2.53.84-3.79,1-5.07,1.9-10.15,2.61-15.27.36-2.55.7-5.11,1-7.68.13-1.29.26-2.58.35-3.88a24.32,24.32,0,0,0,0-4,3.26,3.26,0,0,0-1.17-2.21,3.36,3.36,0,0,0-2.43-.56,9.76,9.76,0,0,0-3.91,1.57,16.66,16.66,0,0,0-5.52,5.86c-2.51,4.54-4.87,9.1-7.27,13.66s-4.79,9.19-7,13.7c-1.26,2.22-2.61,4.43-3.93,6.63s-2.61,4.45-3.83,6.72c3.14-4.1,6.11-8.28,9-12.59l7.22-13.71c2.42-4.53,4.84-9.1,7.35-13.55a15.33,15.33,0,0,1,4.94-5.31,8,8,0,0,1,3.18-1.34,1.4,1.4,0,0,1,1.81,1.35,24,24,0,0,1,0,3.69c-.08,1.27-.19,2.55-.32,3.83-.26,2.55-.57,5.1-.91,7.64-.7,5.09-1.38,10.19-2.28,15.25-.22,1.26-.45,2.52-.73,3.76a29.78,29.78,0,0,1-1.14,3.63L253.51,202Z" style="fill: rgb(38, 50, 56); transform-origin: 245.571px 185.23px;" id="el621xjvd5ajh" class="animable"></path><path d="M237,189.46c-2.34,3.2-4.41,6.58-6.48,10s-4.13,6.76-6.18,10.15c-4.06,6.8-8.11,13.61-11.93,20.52-1.92,3.45-3.8,6.94-5.44,10.49-.41.88-.8,1.78-1.13,2.67-.19.45-.31.89-.45,1.33a7.59,7.59,0,0,0-.25,1.34c-.09,1-.23,1.92-.24,2.89l-.07,1.46v1.46A71.34,71.34,0,0,0,206,263.44,102.93,102.93,0,0,0,208.76,275a83,83,0,0,1-3.68-11.35,63.89,63.89,0,0,1-1.81-11.86,38.36,38.36,0,0,1,.12-6.06,9.23,9.23,0,0,1,.26-1.59c.14-.51.28-1,.46-1.5.34-1,.72-1.9,1.13-2.82,1.62-3.68,3.5-7.19,5.41-10.69q5.83-10.41,12.36-20.38,3.26-5,6.68-9.86c1.16-1.61,2.33-3.22,3.53-4.81A51.9,51.9,0,0,1,237,189.46Z" style="fill: rgb(38, 50, 56); transform-origin: 220.101px 232.23px;" id="el0kual045erbo" class="animable"></path><path d="M274.31,249.06,209.58,306s34.1,78.13,50.21,88.06c18.67,11.5,57.33-17.8,45.3-60Z" style="fill: rgb(126, 87, 194); transform-origin: 258.474px 322.818px;" id="elcr0nuodogre" class="animable"></path><g id="elztjiooe8fq"><path d="M305.12,334.13A78.16,78.16,0,0,0,277,349.93c-5,4.36-9.53,9.1-14.74,13.17a83.63,83.63,0,0,1-15.41,9.64c-1,.46-1.94.91-2.93,1.33-1-1.65-2-3.37-3-5.13a79,79,0,0,0,13.58-7.47c5.24-3.58,9.94-7.86,14.87-11.84a99.81,99.81,0,0,1,15-10.08,84.61,84.61,0,0,1,20-7.79l.82,2.26ZM296,309q-1.86.43-3.72.9c-5.33,1.3-10.57,2.92-15.8,4.58-5,1.6-10,3.57-15.2,4.61-16.68,3.35-30.87-7.09-45.14-14.46A98.06,98.06,0,0,1,230,291.58a50.27,50.27,0,0,1,11.64-6.69,64.77,64.77,0,0,1,16.72-3.77c8.89-1,17.87-1,26.67-2.55l-1.42-3.91c-6.88.6-13.84.51-20.73.87-8.15.42-16.21,1.54-23.72,4.45l-29.55,26s.66,1.5,1.83,4.12c.23-.27.46-.54.7-.8,5.08,2.51,10,5.39,15,8,8.27,4.36,17.37,8.46,26.92,8.25,5.38-.12,10.44-1.93,15.31-4.07s10-4.49,15.1-6.42q6.09-2.28,12.26-4.21ZM276.61,255.4c-.83.28-1.66.55-2.5.8a59.49,59.49,0,0,1-10.31,2.1l8.41-7.39c.85-.2,1.7-.41,2.54-.63Z" style="opacity: 0.1; transform-origin: 257.4px 312.175px;" class="animable"></path></g><path d="M276.6,271.86c-23.84,24.46-48.17,42.19-52.91,46.4-.23.19-.52-.19-.29-.38,4.87-3.88,30.57-28.33,52.89-46.43C276.55,271.24,276.83,271.62,276.6,271.86Z" style="fill: rgb(38, 50, 56); transform-origin: 250.001px 294.85px;" id="el3reh2ipw0q6" class="animable"></path><path d="M246.44,377.86c-5-9.28-10.06-18.53-15-27.86s-9.53-18.78-14-28.31c-2.48-5.26-4.44-10.32-6.78-15.64,2.36-2.1,4.06-3.89,6.55-6.28.33-.32-.14-.91-.51-.63-3,2.27-7.85,6.43-7.75,6.68q6,14.64,13,28.86t14.92,28.1q4.45,7.74,9.44,15.16C246.36,378,246.49,378,246.44,377.86Z" style="fill: rgb(38, 50, 56); transform-origin: 227.7px 338.522px;" id="ell4eczhq306o" class="animable"></path><path d="M90.36,394.48c17.83-5.18,60-58.54,84.55-119.6,3.8-9.44-45.62-46.12-51.51-37C116,249.45,74,313.6,72.5,317.24,59.89,347.88,78.27,398,90.36,394.48Z" style="fill: rgb(211, 118, 106); transform-origin: 121.689px 315.546px;" id="el99x82cd1i06" class="animable"></path><path d="M184.87,243.8c.5,12.25-9.65,30.63-9.65,30.63l-55.09-30.65s7.56-18.32,6.76-28.82c-.24-3.05-.81-19.06-2.35-34.56-1.76-17.6-1.35-36.27-.07-38,2.46-3.28,8.94-1,12.91,10.53s7.84,35.45,8.45,36.82a9.21,9.21,0,0,0,.87,1.23h0c.54.39,17.83,1.94,21.85,8.68S185.52,241.67,184.87,243.8Z" style="fill: rgb(211, 118, 106); transform-origin: 152.512px 207.731px;" id="el1t7i36acv8x" class="animable"></path><path d="M144.52,213.53S129,188.08,129.43,181.89s-2.93-43.68-.53-47,8.93-1,12.92,10.53,7.83,35.45,8.44,36.83S168,203.51,169,205.82,144.52,213.53,144.52,213.53Z" style="fill: rgb(211, 118, 106); transform-origin: 148.528px 173.517px;" id="el6vlb7l0jwgr" class="animable"></path><path d="M133.77,200.43c-1-3.09-2-6.22-2.88-9.36-.44-1.57-.85-3.15-1.25-4.74-.19-.8-.38-1.59-.55-2.4-.09-.4-.15-.83-.23-1.24a12.54,12.54,0,0,1-.1-1.29c-.32-6.48-.62-13-.89-19.52s-.48-13-.54-19.57a20.64,20.64,0,0,1,.65-5,9.3,9.3,0,0,1,1-2.38,4.18,4.18,0,0,1,2-1.81,3.4,3.4,0,0,1,2.66.15,7.29,7.29,0,0,1,2.06,1.47,17.81,17.81,0,0,1,2.95,3.93,21.39,21.39,0,0,0-3.25-3.59,7.24,7.24,0,0,0-2-1.2,2.65,2.65,0,0,0-2.09,0c-1.27.61-1.91,2.2-2.24,3.68a19.47,19.47,0,0,0-.38,4.71c.36,6.47.68,13,.93,19.52s.48,13,.48,19.57a24.57,24.57,0,0,0,.62,4.71c.31,1.59.67,3.18,1,4.77Z" style="fill: rgb(38, 50, 56); transform-origin: 132.99px 166.674px;" id="els3e9s7iis1" class="animable"></path><path d="M151,215.37s-16.86-28-16.47-34.15-2.92-43.69-.53-47,8.94-1,12.92,10.53,7.83,35.44,8.44,36.82,15.13,22.31,16.15,24.62S151,215.37,151,215.37Z" style="fill: rgb(211, 118, 106); transform-origin: 152.335px 174.104px;" id="elhq87tnblz69" class="animable"></path><path d="M138.87,203.78c-1.1-3.85-2.05-7.74-3-11.63q-.66-2.93-1.25-5.88c-.2-1-.38-2-.53-3a23,23,0,0,1-.26-3.06q-.47-12-.81-24l-.27-12,0-3a24.85,24.85,0,0,1,.1-3.09,12.56,12.56,0,0,1,.72-3.1,5.41,5.41,0,0,1,2-2.7,3.13,3.13,0,0,1,1.79-.47,4.16,4.16,0,0,1,1.68.48,9.27,9.27,0,0,1,2.48,2,27.4,27.4,0,0,1,3.48,5,34.78,34.78,0,0,1,3.89,11.37,37.46,37.46,0,0,0-4.61-11,27.39,27.39,0,0,0-3.54-4.68,8.14,8.14,0,0,0-2.22-1.68,2.2,2.2,0,0,0-2.25,0,4.16,4.16,0,0,0-1.39,2.09,11.88,11.88,0,0,0-.56,2.75c-.15,1.87,0,3.92.06,5.9l.36,12c.21,8,.43,16,.47,24a21.67,21.67,0,0,0,.12,2.92c.11,1,.25,2,.4,3,.3,2,.65,3.93,1,5.89Z" style="fill: rgb(38, 50, 56); transform-origin: 140.814px 167.814px;" id="elc7xuotsgbcd" class="animable"></path><path d="M150,215.69s-9-27.71-8.6-33.46-3.5-31.22-1.27-34.33,8.32-1,12,9.8,8.06,23.55,8.63,24.84,9.76,21.48,10.71,23.63S150,215.69,150,215.69Z" style="fill: rgb(211, 118, 106); transform-origin: 155.468px 181.14px;" id="elkcb729f392" class="animable"></path><path d="M145.33,209c-1.28-5-2.47-10-3.68-15q-.92-3.75-1.75-7.53l-.42-1.89a16.28,16.28,0,0,1-.3-2c-.13-1.3-.22-2.59-.29-3.88-.27-5.16-.43-10.31-.4-15.48,0-2.58,0-5.16.14-7.74,0-1.3.1-2.59.19-3.89a24.2,24.2,0,0,1,.53-4,3.3,3.3,0,0,1,1.48-2,3.34,3.34,0,0,1,2.48-.2,9.59,9.59,0,0,1,3.64,2.11,16.69,16.69,0,0,1,4.63,6.59c1.83,4.85,3.53,9.7,5.25,14.56s3.43,9.78,5,14.56c.93,2.38,2,4.76,2.94,7.13s1.94,4.78,2.83,7.2c-2.52-4.52-4.87-9.08-7.11-13.76l-5.19-14.59c-1.76-4.84-3.5-9.7-5.34-14.47a15.44,15.44,0,0,0-4.13-5.95,8,8,0,0,0-3-1.79,1.4,1.4,0,0,0-2,1.08,22.76,22.76,0,0,0-.5,3.66c-.11,1.27-.17,2.55-.23,3.83-.11,2.56-.17,5.13-.2,7.7,0,5.13-.09,10.28.08,15.41,0,1.28.09,2.56.19,3.83a29.26,29.26,0,0,0,.61,3.75l1.5,7.58Z" style="fill: rgb(38, 50, 56); transform-origin: 153.043px 177.12px;" id="el8h7nxm3i9ay" class="animable"></path><path d="M160.79,182.54l5.37,11.08c1.77,3.7,3.52,7.41,5.22,11.15,3.41,7.47,6.67,15,9.66,22.67,1.46,3.85,2.88,7.71,4,11.74a26.14,26.14,0,0,1,.66,3.12,8.7,8.7,0,0,1,.08,1.7l-.11,1.57a51.05,51.05,0,0,1-1,6.17,73.78,73.78,0,0,1-3.57,11.87,58.26,58.26,0,0,1-2.57,5.63,26.87,26.87,0,0,1-3.34,5.19,46.26,46.26,0,0,0,5-11.16c.64-1.94,1.21-3.89,1.69-5.87s.92-4,1.27-6,.59-4,.74-6l.07-1.5a7,7,0,0,0-.1-1.36c-.16-.95-.41-1.92-.67-2.89-1.09-3.88-2.55-7.71-4-11.52-2.93-7.64-6.1-15.2-9.21-22.78S163.65,190.25,160.79,182.54Z" style="fill: rgb(38, 50, 56); transform-origin: 173.291px 228.485px;" id="elevkg7ixz3m7" class="animable"></path><path d="M114.94,237.46l50.58,80s-58.29,73.12-75.63,80.68C69.78,407,52.75,354.47,70.6,314.39Z" style="fill: rgb(126, 87, 194); transform-origin: 114.306px 318.294px;" id="el044fw6ika3qd" class="animable"></path><g id="el7dll3vba4ni"><path d="M113.17,378.17c-2.88,3-5.66,5.77-8.28,8.27a60.74,60.74,0,0,0-7.24,3.08c-5.38,2.71-10.47,5.94-15.62,9.06a14.87,14.87,0,0,1-5.46-3.46c9.94-6,19.59-12.66,31-15.71C109.39,378.91,111.27,378.49,113.17,378.17Zm41.53-77.79c-2,.68-4,1.43-5.94,2.23-9.44,3.83-18.56,8.41-28.16,11.84a77,77,0,0,1-26.52,4.73A72.8,72.8,0,0,1,70.36,315c-.36.81-.7,1.62-1,2.44a72.79,72.79,0,0,0,16.33,5.2,68.94,68.94,0,0,0,26.7.07c10.08-2.05,19.45-6.3,28.81-10.41,5.49-2.41,11-4.83,16.77-6.73ZM96.49,327.31a83.67,83.67,0,0,0-30.95,2.3q-.62,2.63-1.06,5.25a77.69,77.69,0,0,1,26.68-2.22c18.35,1.6,36.5,7.27,54.89,8.54,1.64-1.95,3.22-3.83,4.71-5.63C132.57,335.06,114.47,329.14,96.49,327.31ZM132,264.45a70.74,70.74,0,0,1-19.21,6,63.2,63.2,0,0,1-16.94.18l2-3.52a62.72,62.72,0,0,0,21.26-3.45,95.15,95.15,0,0,0,9.76-4.08Zm-14.54-23a57.27,57.27,0,0,0-6.65,3.21l4.14-7.18Z" style="opacity: 0.1; transform-origin: 111.225px 318.03px;" class="animable"></path></g><path d="M147.32,323.48c-20.44-27.36-34.16-54.16-37.58-59.5-.16-.25.26-.48.41-.22,3.08,5.41,23.22,34.61,37.63,59.48C148,323.52,147.52,323.74,147.32,323.48Z" style="fill: rgb(38, 50, 56); transform-origin: 128.77px 293.621px;" id="eld1qfazhmpp" class="animable"></path><path d="M160.05,307.36a.44.44,0,0,0-.75.46c1.35,2.37,4.6,8.45,4.64,9,0,.36-9.73,12.27-12.93,16.32q-9.51,12.08-19.52,23.75T110.88,380c-3.23,3.48-6.41,7.07-9.9,10.3-3.12,2.88-6.68,5.5-10.86,6.57-7.43,1.92-15.62-2.42-19.07-9.1A15.77,15.77,0,0,1,70,385.11c0-.09-.17-.07-.15,0,1.24,7.88,8.61,13.74,16.46,13.94,9.44.24,16.55-7.59,22.48-13.9q11-11.67,21.47-23.79t20.53-24.75c3.31-4.17,15.19-19.64,15.29-20S160.82,308.53,160.05,307.36Z" style="fill: rgb(38, 50, 56); transform-origin: 117.965px 353.107px;" id="elk6uunbxex5" class="animable"></path><path d="M119.53,243.87c-.32-.63-4.66-7.66-4.81-7.41-2.25,3.7-4.52,7.8-6.6,11.6-1,1.88-2.08,3.75-3.09,5.65a52.63,52.63,0,0,0-2.84,5.67c0,.09.11.16.16.09a49.61,49.61,0,0,0,3.3-5.28c1.11-1.88,2.18-3.79,3.27-5.69,2-3.56,4.18-7.31,6-10.31.61,1,3.67,5.35,4.12,5.94A.26.26,0,0,0,119.53,243.87Z" style="fill: rgb(38, 50, 56); transform-origin: 110.876px 247.976px;" id="el80q1m9e831o" class="animable"></path></g><g id="freepik--Device--inject-106" class="animable" style="transform-origin: 328.125px 389.665px;"><rect x="202" y="432.09" width="148.25" height="6.65" style="fill: rgb(69, 90, 100); transform-origin: 276.125px 435.415px;" id="elcj2bx5z36xi" class="animable"></rect><rect x="202" y="432.1" width="74.62" height="6.65" style="fill: rgb(38, 50, 56); transform-origin: 239.31px 435.425px;" id="elhnk0u0fwez" class="animable"></rect><polygon points="282.39 438.74 426.88 438.71 447.27 340.58 302.79 340.6 282.39 438.74" style="fill: rgb(38, 50, 56); transform-origin: 364.83px 389.66px;" id="el42muzg2u0nq" class="animable"></polygon><polygon points="289.37 438.74 433.85 438.71 454.25 340.58 309.76 340.6 289.37 438.74" style="fill: rgb(55, 71, 79); transform-origin: 371.81px 389.66px;" id="elscen37x4imk" class="animable"></polygon><path d="M353.63,391.85a8.52,8.52,0,0,0,8.62,9.63,11,11,0,0,0,10.64-9.63,8.51,8.51,0,0,0-8.62-9.63A11,11,0,0,0,353.63,391.85Z" style="fill: rgb(255, 255, 255); transform-origin: 363.261px 391.85px;" id="elw7beuef3x" class="animable"></path></g><g id="freepik--Plant--inject-106" class="animable" style="transform-origin: 421.85px 382.69px;"><path d="M423.49,405S431,378,437,368.84s17.22-19.26,17.22-19.26S454,391.24,423.49,405Z" style="fill: rgb(126, 87, 194); transform-origin: 438.855px 377.29px;" id="elxhbueyqfjka" class="animable"></path><path d="M424,404.57a128.14,128.14,0,0,0,6.86-13.09,91.43,91.43,0,0,1,3.74-14.21c0-.09.15,0,.13.05-1,4.27-2.16,8.5-3.21,12.75,3-6.57,5.92-13.23,9.54-19.45a41.58,41.58,0,0,1,3.49-8.64c0-.08.17,0,.13,0a55.31,55.31,0,0,0-2.34,6.49,64.16,64.16,0,0,1,5.72-7.9c.13-.16.39,0,.26.18C443.51,367,440.17,374,437,381.11a108.16,108.16,0,0,0,9.45-11.81s.09,0,.06.05a97.35,97.35,0,0,1-10.11,13.11c-2.32,5.21-4.6,10.44-7.36,15.4,5.52-4.66,9.77-10.7,14-16.52a.13.13,0,0,1,.21.14c-4.21,6.39-8.56,12.41-14.61,17.14a66.17,66.17,0,0,1-4,6.31A.32.32,0,0,1,424,404.57Z" style="fill: rgb(38, 50, 56); transform-origin: 436.155px 382.81px;" id="elddfl6u7wqj" class="animable"></path><path d="M421.16,407.47s13.53-24.92,9.6-49.07-8.14-32.76-8.14-32.76S401.35,363.21,421.16,407.47Z" style="fill: rgb(126, 87, 194); transform-origin: 422.097px 366.555px;" id="el834d1omh4ui" class="animable"></path><path d="M415.6,368.3a118,118,0,0,0,5.23,20.12c0-8.87.2-17.73.44-26.6a68.19,68.19,0,0,1-2.55-16.5c0-.17.23-.16.25,0a93.24,93.24,0,0,0,2.37,14.21c.2-7.32.45-14.63.71-21.94a.1.1,0,0,1,.19,0c0,11.42,0,22.84-.07,34.27a92.22,92.22,0,0,0,3.9-13.58s.08,0,.08,0a53.12,53.12,0,0,1-4,15.44c0,7.3-.13,14.6-.29,21.9,2.29-7.76,4.73-15.28,5.39-23.48,0-.11.18-.11.17,0-.17,9.05-2.51,18.23-5.49,26.74a.47.47,0,0,1-.15.21c-.07,2.67-.14,5.34-.23,8a.3.3,0,0,1-.6,0q-.15-8.19-.13-16.38a73.44,73.44,0,0,1-5.34-22.43C415.48,368.25,415.59,368.23,415.6,368.3Z" style="fill: rgb(38, 50, 56); transform-origin: 421.45px 372.456px;" id="elf1txmczbir7" class="animable"></path><path d="M416.53,364.45a45.73,45.73,0,0,1,.94,6.58c0,.07-.11.08-.12,0a46.82,46.82,0,0,1-1.12-6.56C416.21,364.31,416.5,364.28,416.53,364.45Z" style="fill: rgb(38, 50, 56); transform-origin: 416.85px 367.711px;" id="elmkmmfipouwf" class="animable"></path><path d="M424.44,346.24c0-.08.13-.06.13,0a16.69,16.69,0,0,1-.68,4.54c0,.12-.21.06-.18-.06C424,349.24,424.19,347.74,424.44,346.24Z" style="fill: rgb(38, 50, 56); transform-origin: 424.139px 348.516px;" id="el5yrnpjf0ipl" class="animable"></path><path d="M416.22,409.37s.55-26-6.91-38.93a56,56,0,0,0-19.83-19.51S394.47,396.77,416.22,409.37Z" style="fill: rgb(126, 87, 194); transform-origin: 402.855px 380.15px;" id="el6psn62ivh78" class="animable"></path><path d="M402.63,387.13a96.13,96.13,0,0,0,10.09,12.8q-2.24-8-5.16-15.68c-4.18-3.67-8.33-7.47-10.9-12.49,0-.08.08-.15.12-.07,2.76,4.44,6.45,8,10.33,11.42a202.08,202.08,0,0,0-10.38-22.62.16.16,0,0,1,.28-.16,124.24,124.24,0,0,1,6.52,11.87c-.7-2.78-1.26-5.63-2-8.38a.06.06,0,0,1,.12,0,47.2,47.2,0,0,1,3.06,11,132.8,132.8,0,0,1,6.57,17.8c-.19-3.9-.44-7.78-.84-11.67,0-.07.12-.09.13,0a62.64,62.64,0,0,1,1.13,13.1q1.62,5.82,2.71,11.75c0,.11-.14.15-.16.05-.41-1.66-.85-3.3-1.3-4.94,0,0-.06,0-.08,0a52.29,52.29,0,0,1-10.3-13.68S402.61,387.11,402.63,387.13Z" style="fill: rgb(38, 50, 56); transform-origin: 405.535px 383.079px;" id="elvjyh1h51ryq" class="animable"></path><path d="M394,366c.83.9,1.6,1.84,2.4,2.77a21.28,21.28,0,0,1,2.15,2.51s0,.08-.06.06a13.08,13.08,0,0,1-2.48-2.45,20.67,20.67,0,0,1-2.13-2.8A.08.08,0,0,1,394,366Z" style="fill: rgb(38, 50, 56); transform-origin: 396.213px 368.665px;" id="el9io3srwmrik" class="animable"></path><path d="M438.39,406.2l-.94,8.34-2.84,25.2H409.9l-2.84-25.2-.94-8.34h32.27Z" style="fill: rgb(219, 219, 219); transform-origin: 422.255px 422.97px;" id="eltiy084954dm" class="animable"></path><path d="M438.39,406.2l-.94,8.34H407.06l-.94-8.34h32.27Z" style="fill: rgb(166, 166, 166); transform-origin: 422.255px 410.37px;" id="eldde6mlhfvh" class="animable"></path><g id="elq8635qzhrmh"><rect x="403.93" y="400.15" width="36.65" height="9.44" style="fill: rgb(219, 219, 219); transform-origin: 422.255px 404.87px; transform: rotate(180deg);" class="animable"></rect></g></g><g id="freepik--speech-bubble--inject-106" class="animable" style="transform-origin: 383.01px 249.445px;"><polygon points="448.61 172.61 448.61 303.63 394.07 303.63 383.09 325.64 372.12 303.63 317.58 303.63 317.58 172.61 448.61 172.61" style="fill: rgb(255, 255, 255); transform-origin: 383.095px 249.125px;" id="elfb5vraxmriq" class="animable"></polygon><path d="M448.61,172.61l.21,65.43.11,65.59V304h-.32l-54.54.06.35-.21-10.95,22-.38.75-.38-.75-11-22,.4.25-54.54,0h-.48v-.49l.16-131v-.32h.32l65.6.11Zm0,0-65.6.22-65.43.11.32-.33.16,131-.48-.48,54.54,0h.28l.12.25,11,22h-.76l11-22,.11-.22h.24l54.54.07-.32.32.11-65.42Z" style="fill: rgb(38, 50, 56); transform-origin: 383.01px 249.445px;" id="els9iryphpheo" class="animable"></path><polygon points="344.98 232.49 378.78 240.6 421.21 236.28 382.65 229.52 344.98 232.49" style="fill: rgb(126, 87, 194); transform-origin: 383.095px 235.06px;" id="elfl05e6yv6um" class="animable"></polygon><g id="elxe5nvwq6pai"><polygon points="344.98 232.49 378.78 240.6 421.21 236.28 382.65 229.52 344.98 232.49" style="opacity: 0.3; transform-origin: 383.095px 235.06px;" class="animable"></polygon></g><polygon points="350.11 278.76 344.98 232.49 378.78 240.6 378.78 288.79 350.11 278.76" style="fill: rgb(126, 87, 194); transform-origin: 361.88px 260.64px;" id="elwyca6w1186q" class="animable"></polygon><g id="eliu3eaietg0e"><polygon points="350.11 278.76 344.98 232.49 378.78 240.6 378.78 288.79 350.11 278.76" style="opacity: 0.1; transform-origin: 361.88px 260.64px;" class="animable"></polygon></g><polygon points="359.39 282.01 367.57 284.87 364.73 237.23 355.4 234.99 359.39 282.01" style="fill: rgb(55, 71, 79); transform-origin: 361.485px 259.93px;" id="elfrpt2lyiv48" class="animable"></polygon><polygon points="378.78 240.6 378.78 288.79 415.49 282.22 421.21 236.28 378.78 240.6" style="fill: rgb(126, 87, 194); transform-origin: 399.995px 262.535px;" id="elvtdzv6btyy" class="animable"></polygon><polygon points="393.31 286.19 402.6 284.53 407.07 237.73 395.63 238.89 393.31 286.19" style="fill: rgb(69, 90, 100); transform-origin: 400.19px 261.96px;" id="elsmoen305o2" class="animable"></polygon><polygon points="423.32 206.82 387.01 213.59 387.69 200.42 424.92 195.08 423.32 206.82" style="fill: rgb(126, 87, 194); transform-origin: 405.965px 204.335px;" id="elx8t760qvuy" class="animable"></polygon><g id="elg98lq5dx7c5"><polygon points="423.32 206.82 387.01 213.59 387.69 200.42 424.92 195.08 423.32 206.82" style="opacity: 0.2; transform-origin: 405.965px 204.335px;" class="animable"></polygon></g><polygon points="342.11 206.66 341.27 194.28 387.69 200.42 387.01 213.59 342.11 206.66" style="fill: rgb(126, 87, 194); transform-origin: 364.48px 203.935px;" id="el2m2o0rizb65" class="animable"></polygon><g id="el1xb7zzugoj6"><polygon points="342.11 206.66 341.27 194.28 387.69 200.42 387.01 213.59 342.11 206.66" style="opacity: 0.1; transform-origin: 364.48px 203.935px;" class="animable"></polygon></g><polygon points="411.3 209.06 400.52 211.07 401.73 198.4 412.73 196.82 411.3 209.06" style="fill: rgb(55, 71, 79); transform-origin: 406.625px 203.945px;" id="ela3auimfxyg4" class="animable"></polygon><polygon points="370.87 211.09 357.87 209.09 357.24 196.4 370.91 198.2 370.87 211.09" style="fill: rgb(69, 90, 100); transform-origin: 364.075px 203.745px;" id="elcd5yxncweu6" class="animable"></polygon><polygon points="424.92 195.08 387.69 200.42 341.27 194.28 382.82 191.54 424.92 195.08" style="fill: rgb(126, 87, 194); transform-origin: 383.095px 195.98px;" id="el478g9whsmzq" class="animable"></polygon><polygon points="412.73 196.82 369.47 192.42 360.33 193.03 401.73 198.4 412.73 196.82" style="fill: rgb(69, 90, 100); transform-origin: 386.53px 195.41px;" id="eluy5baqug8hl" class="animable"></polygon><polygon points="370.91 198.2 357.24 196.4 396.96 192.73 407.86 193.65 370.91 198.2" style="fill: rgb(69, 90, 100); transform-origin: 382.55px 195.465px;" id="elevu66ioi0ao" class="animable"></polygon><path d="M394.56,191.89s7.45-1.81,11.95,1.54,6.22,7.81,7.81,8.88,7.19.89,7.19.89l-5,10.28s-3.25,1-6.62-3.23-4.66-10.07-8.16-12.72-8.57-3.15-8.57-3.15Z" style="fill: rgb(69, 90, 100); transform-origin: 407.335px 202.492px;" id="elyv3duwawtwp" class="animable"></path><path d="M404,200a20.79,20.79,0,0,0,1.63-7.14h0c-4.53-2.56-11.08-1-11.08-1l-1.37,2.49s5.08.51,8.57,3.15A9.91,9.91,0,0,1,404,200Z" style="fill: rgb(55, 71, 79); transform-origin: 399.405px 195.695px;" id="el7etacbf6c3f" class="animable"></path><path d="M383,192.48s-7.31-2.71-12.65-.12-8.11,6.22-10,7-7.65-.52-7.65-.52l3.12,11.69s3.17,1.7,7.52-2,6.86-9.54,11-11.59,9.52-1.62,9.52-1.62Z" style="fill: rgb(69, 90, 100); transform-origin: 368.28px 201.08px;" id="eldjb78s6qak" class="animable"></path><path d="M367.3,204.17c2.31-2.93,4.33-5.91,7.07-7.26,4.16-2,9.52-1.62,9.52-1.62l-.9-2.81s-7.31-2.71-12.65-.12a25.4,25.4,0,0,0-3.09,1.76A29.73,29.73,0,0,0,367.3,204.17Z" style="fill: rgb(55, 71, 79); transform-origin: 375.368px 197.705px;" id="elxx9x3p1w32" class="animable"></path><path d="M367.3,204.17a15.32,15.32,0,0,1-2.38,3.16,13.27,13.27,0,0,1-1.48,1.33,7.63,7.63,0,0,1-1.71,1C363.75,208,365.4,206,367.3,204.17Z" style="fill: rgb(38, 50, 56); transform-origin: 364.515px 206.915px;" id="elf9pfipqa5i8" class="animable"></path><path d="M365.05,195.72c-.54.51-1.05,1.05-1.6,1.57a18.45,18.45,0,0,1-1.69,1.48,7.28,7.28,0,0,1-1,.64,2.77,2.77,0,0,1-1.14.33,6.58,6.58,0,0,1-2.26-.17,12.16,12.16,0,0,0,2.2-.21,4.2,4.2,0,0,0,1.86-1L363.2,197A13.84,13.84,0,0,1,365.05,195.72Z" style="fill: rgb(38, 50, 56); transform-origin: 361.205px 197.746px;" id="elka6oxzjhcg" class="animable"></path><path d="M370,192.46c.19,1.81,8.78,3.89,14.34,1.8,0,0-4.24-4-8.45-4.15S369.94,191.67,370,192.46Z" style="fill: rgb(38, 50, 56); transform-origin: 377.169px 192.618px;" id="elaorkymbui0b" class="animable"></path><path d="M384.36,194.26v-1.6c-3.3-6.24-9.27-8.92-9.73-8.92s-2.87,2-3.9,4a9.05,9.05,0,0,0-.71,4.73c.07-.59,1.76-2.15,5-2S383.63,193.41,384.36,194.26Z" style="fill: rgb(69, 90, 100); transform-origin: 377.158px 189px;" id="elmi6wz7af5p" class="animable"></path><path d="M384.36,193.64v-.71a9.86,9.86,0,0,0-2.78-2.9,0,0,0,1,0,0,0c.54.58,1.05,1.17,1.54,1.78a24.57,24.57,0,0,0-4.35-2.63c-.06,0-.12.07-.05.1A31.46,31.46,0,0,1,384.36,193.64Z" style="fill: rgb(38, 50, 56); transform-origin: 381.524px 191.41px;" id="elb94i4o77abf" class="animable"></path><path d="M373.63,206.06c1.81,1.14,8.49-4.44,10.6-11.11,0,0-5.27.1-8.52,3.86S372.84,205.56,373.63,206.06Z" style="fill: rgb(38, 50, 56); transform-origin: 378.657px 200.579px;" id="elufayo3c20hq" class="animable"></path><path d="M384.23,195v-2.11c-8.19-1.5-15,2.08-15.36,2.51s-.26,4.11.85,6.52,4.35,4.61,3.86,4.11-.7-3.2,1.79-6.11A17.48,17.48,0,0,1,384.23,195Z" style="fill: rgb(69, 90, 100); transform-origin: 376.457px 199.313px;" id="elkpja6wk3by" class="animable"></path><path d="M384.24,194.18v-.5a17.49,17.49,0,0,0-7.48,1.94c-.07,0,0,.15.05.12a23.17,23.17,0,0,1,4.07-1.2A24,24,0,0,1,384.24,194.18Z" style="fill: rgb(38, 50, 56); transform-origin: 380.485px 194.712px;" id="elp04mc7i1tc" class="animable"></path><path d="M370.9,203.64a2.67,2.67,0,0,1-1-1,3,3,0,0,1-.3-.63,1.9,1.9,0,0,1-.08-.71,8.5,8.5,0,0,1,.8,1.07A5.19,5.19,0,0,1,370.9,203.64Z" style="fill: rgb(38, 50, 56); transform-origin: 370.207px 202.47px;" id="el2ht7x4nypl1" class="animable"></path><path d="M402,192.65c-.21,1.81-8.83,3.79-14.36,1.63,0,0,4.29-3.91,8.51-4.05S402.06,191.87,402,192.65Z" style="fill: rgb(38, 50, 56); transform-origin: 394.821px 192.723px;" id="ellsgb3pfmiz9" class="animable"></path><path d="M401.32,187.92c-1-2-3.4-4-3.86-4s-6.46,2.6-9.83,8.8v1.6c.74-.84,6.13-3.62,9.38-3.71s4.92,1.49,5,2.08A9,9,0,0,0,401.32,187.92Z" style="fill: rgb(69, 90, 100); transform-origin: 394.857px 189.12px;" id="elo54j1uu80l9" class="animable"></path><path d="M393.57,188.3a17,17,0,0,0-4.16,2.89,22.24,22.24,0,0,0-1.78,1.84v.85a19.64,19.64,0,0,1,2-2.29,24.92,24.92,0,0,1,4.06-3.1A.11.11,0,0,0,393.57,188.3Z" style="fill: rgb(38, 50, 56); transform-origin: 390.686px 191.081px;" id="eltkn2lctn1jf" class="animable"></path><path d="M398.22,206.19c-1.83,1.13-8.45-4.52-10.49-11.22,0,0,5.27.16,8.48,4S399,205.7,398.22,206.19Z" style="fill: rgb(38, 50, 56); transform-origin: 393.252px 200.652px;" id="eljp1zfrtsk5a" class="animable"></path><path d="M403.08,195.56c-.33-.43-7.13-4.1-15.34-2.7V195a17.53,17.53,0,0,1,8.8,5c2.45,2.95,2.2,5.65,1.71,6.14s2.77-1.66,3.91-4.06S403.4,196,403.08,195.56Z" style="fill: rgb(69, 90, 100); transform-origin: 395.489px 199.377px;" id="el3nblevjhn82" class="animable"></path><path d="M396,197.1a8.22,8.22,0,0,0-3.86-2.45,18.82,18.82,0,0,0-3.35-.81,18.78,18.78,0,0,1,2.12,0,17.58,17.58,0,0,1,3.72.84c.08,0,.11-.1.05-.14-1.86-1.19-4.65-1.3-6.89-1v.68a24.78,24.78,0,0,1,3.68.68,9.78,9.78,0,0,1,4.44,2.28S396,197.15,396,197.1Z" style="fill: rgb(38, 50, 56); transform-origin: 391.895px 195.289px;" id="elldev2o69u3l" class="animable"></path><path d="M388.79,193.18c0-.43-.14-2-.73-2.25s-1.63.11-1.9.11h0c-.27,0-1.3-.38-1.89-.14s-.74,1.82-.76,2.25,0,2.1.56,2.29a6.36,6.36,0,0,0,2.07-.15,6.5,6.5,0,0,0,2.06.18C388.75,195.28,388.79,193.61,388.79,193.18Z" style="fill: rgb(69, 90, 100); transform-origin: 386.148px 193.154px;" id="elmuk0zlady8i" class="animable"></path><polygon points="423.74 224.19 442 220.51 442.13 225.15 423.74 224.19" style="fill: rgb(126, 87, 194); transform-origin: 432.935px 222.83px;" id="elrb7ggdk7h7" class="animable"></polygon><polygon points="422.36 216.97 430 208.28 432.25 210.8 422.36 216.97" style="fill: rgb(126, 87, 194); transform-origin: 427.305px 212.625px;" id="eli6wi9cwqmne" class="animable"></polygon><polygon points="421.99 225.86 432.25 230.92 430.71 234.04 421.99 225.86" style="fill: rgb(126, 87, 194); transform-origin: 427.12px 229.95px;" id="elpkk87cnsjo" class="animable"></polygon><polygon points="342.45 218.14 324.19 221.81 324.06 217.17 342.45 218.14" style="fill: rgb(126, 87, 194); transform-origin: 333.255px 219.49px;" id="elng0ynh2v8fs" class="animable"></polygon><polygon points="343.83 225.35 336.19 234.04 333.94 231.52 343.83 225.35" style="fill: rgb(126, 87, 194); transform-origin: 338.885px 229.695px;" id="elwuhqh8zy4" class="animable"></polygon><polygon points="344.2 216.47 333.94 211.4 335.47 208.28 344.2 216.47" style="fill: rgb(126, 87, 194); transform-origin: 339.07px 212.375px;" id="el4w9pjli3pk" class="animable"></polygon></g><g id="freepik--Lines--inject-106" class="animable" style="transform-origin: 158.65px 89.425px;"><polygon points="168.77 100.99 143.9 74.15 151.54 69.17 168.77 100.99" style="fill: rgb(69, 90, 100); transform-origin: 156.335px 85.08px;" id="elx7daqi1011" class="animable"></polygon><polygon points="161.16 109.68 138.78 105.79 140.69 99.43 161.16 109.68" style="fill: rgb(69, 90, 100); transform-origin: 149.97px 104.555px;" id="ellx3iignqx6" class="animable"></polygon><polygon points="173.75 97.64 171.72 75.25 178.52 74.63 173.75 97.64" style="fill: rgb(69, 90, 100); transform-origin: 175.12px 86.135px;" id="elbjuf2y9yozh" class="animable"></polygon></g><g id="freepik--Table--inject-106" class="animable" style="transform-origin: 250px 439.075px;"><polygon points="45.75 439.07 96.82 438.83 147.88 438.74 250 438.58 352.12 438.74 403.19 438.83 454.25 439.07 403.19 439.32 352.12 439.41 250 439.57 147.88 439.41 96.82 439.32 45.75 439.07" style="fill: rgb(38, 50, 56); transform-origin: 250px 439.075px;" id="elbd27uu98h0i" class="animable"></polygon></g><defs>     <filter id="active" height="200%">         <feMorphology in="SourceAlpha" result="DILATED" operator="dilate" radius="2"></feMorphology>                <feFlood flood-color="#32DFEC" flood-opacity="1" result="PINK"></feFlood>        <feComposite in="PINK" in2="DILATED" operator="in" result="OUTLINE"></feComposite>        <feMerge>            <feMergeNode in="OUTLINE"></feMergeNode>            <feMergeNode in="SourceGraphic"></feMergeNode>        </feMerge>    </filter>    <filter id="hover" height="200%">        <feMorphology in="SourceAlpha" result="DILATED" operator="dilate" radius="2"></feMorphology>                <feFlood flood-color="#ff0000" flood-opacity="0.5" result="PINK"></feFlood>        <feComposite in="PINK" in2="DILATED" operator="in" result="OUTLINE"></feComposite>        <feMerge>            <feMergeNode in="OUTLINE"></feMergeNode>            <feMergeNode in="SourceGraphic"></feMergeNode>        </feMerge>            <feColorMatrix type="matrix" values="0   0   0   0   0                0   1   0   0   0                0   0   0   0   0                0   0   0   1   0 "></feColorMatrix>    </filter></defs></svg>